<?xml version="1.0" encoding="UTF-8"?>
<svg id="Layer_1" data-name="Layer 1" xmlns="http://www.w3.org/2000/svg" viewBox="0 0 16 16">
  <path d="M16,1.81132V0H7.54717c-1.00029,0-1.81132.81095-1.81132,1.81132v.90566c0,1.00033.81103,1.81132,1.81132,1.81132h8.45283v-1.81132H7.54717v-.90566h8.45283Z"/>
  <path d="M8.45283,5.73585h-.90566c-1.00029,0-1.81132.81095-1.81132,1.81132v8.45283h1.81132v-5.73585h.90566v5.73585h1.81132V7.54717c0-1.00037-.81095-1.81132-1.81132-1.81132ZM7.54717,9.35849v-1.81132h.90566v1.81132h-.90566Z"/>
  <path d="M2.71698,0H0v10.26415h2.71698c1.00037,0,1.81132-.81099,1.81132-1.81132v-.9057c0-1.00033-.81095-1.81128-1.81132-1.81128h-.90566v-1.20755h.90566c1.00037,0,1.81132-.81099,1.81132-1.81132v-.9057c0-1.00033-.81095-1.81128-1.81132-1.81128ZM2.71698,6.64151v1.81132h-.90566v-1.81132h.90566ZM2.71698,2.71698v.90566h-.90566v-1.81132h.90566v.90566Z"/>
  <path d="M14.18868,5.73585h-.90566c-1.00029,0-1.81132.81095-1.81132,1.81132v4.83019h1.81132v-2.11321h.90566v2.11321h1.81132v-4.83019c0-1.00037-.81095-1.81132-1.81132-1.81132ZM13.28302,9.35849v-1.81132h.90566v1.81132h-.90566Z"/>
</svg>